inDegrees=no
num_controls=7
num_derivatives=13
num_iterations=117
num_multipliers=7
num_parameters=0
num_slacks=7
num_states=26
objective=0.452365
objective_accelerations=0.044617
objective_balance=0.007692
objective_effort=0.035137
objective_height=0.359708
objective_ligament=0.005212
solver_duration=1753.649568
status=Solve_Succeeded
success=true
DataType=double
version=3
OpenSimVersion=4.5
endheader
time	/jointset/ground_pelvis/pelvis_tilt/value	/jointset/ground_pelvis/pelvis_tx/value	/jointset/ground_pelvis/pelvis_ty/value	/jointset/hip_l/hip_flexion_l/value	/jointset/hip_l/hip_adduction_l/value	/jointset/hip_l/hip_rotation_l/value	/jointset/back/lumbar_extension/value	/jointset/patellofemoral_l/patellar_flexion_l/value	/jointset/knee_l/knee_flexion_l/value	/jointset/knee_l/knee_adduction_l/value	/jointset/knee_l/knee_rotation_l/value	/jointset/ankle_l/ankle_angle_l/value	/jointset/subtalar_l/subtalar_angle_l/value	/jointset/ground_pelvis/pelvis_tilt/speed	/jointset/ground_pelvis/pelvis_tx/speed	/jointset/ground_pelvis/pelvis_ty/speed	/jointset/hip_l/hip_flexion_l/speed	/jointset/hip_l/hip_adduction_l/speed	/jointset/hip_l/hip_rotation_l/speed	/jointset/back/lumbar_extension/speed	/jointset/patellofemoral_l/patellar_flexion_l/speed	/jointset/knee_l/knee_flexion_l/speed	/jointset/knee_l/knee_adduction_l/speed	/jointset/knee_l/knee_rotation_l/speed	/jointset/ankle_l/ankle_angle_l/speed	/jointset/subtalar_l/subtalar_angle_l/speed	/forceset/tau_hip_flexion_l	/forceset/tau_hip_adduction_l	/forceset/tau_hip_rotation_l	/forceset/tau_knee_flexion_l	/forceset/tau_ankle_angle_l	/forceset/tau_subtalar_angle_l	/forceset/tau_lumbar_extension	lambda_cid13_p0	lambda_cid13_p1	lambda_cid13_p2	lambda_cid13_p3	lambda_cid13_p4	lambda_cid13_p5	lambda_cid14_p0	/jointset/ground_pelvis/pelvis_tilt/accel	/jointset/ground_pelvis/pelvis_tx/accel	/jointset/ground_pelvis/pelvis_ty/accel	/jointset/hip_l/hip_flexion_l/accel	/jointset/hip_l/hip_adduction_l/accel	/jointset/hip_l/hip_rotation_l/accel	/jointset/back/lumbar_extension/accel	/jointset/patellofemoral_l/patellar_flexion_l/accel	/jointset/knee_l/knee_flexion_l/accel	/jointset/knee_l/knee_adduction_l/accel	/jointset/knee_l/knee_rotation_l/accel	/jointset/ankle_l/ankle_angle_l/accel	/jointset/subtalar_l/subtalar_angle_l/accel	gamma_cid13_p0	gamma_cid13_p1	gamma_cid13_p2	gamma_cid13_p3	gamma_cid13_p4	gamma_cid13_p5	gamma_cid14_p0
0	-0.1600569651500453	0.05853349658106893	0.8979950225131227	0.3774924667018715	-0.2591909883962902	-0.2720531179573205	-0.01265067647494873	0.03223648243721589	0.03223648243721463	-0.1745328416455142	0.17365211808517	-0.04231377076293093	-0.009326060584184509	0	0	0	0	0	0	0	0	0	0	0	0	0	0.1548635171476342	-0.07879220650283555	-0.05329684788143486	-0.3173386743918559	0.3286867152209492	-0.05145114523455564	-0.0964242737400022	62.86796137517048	5.080902959576867	5.934093679171015	-9.897681783841152	-593.320245322443	-68.8741380774574	-39.04650584264478	-4.2021843526653	-1.986988590295227	-1.032964398953794	11.5829465242806	-1.128920759435629	2.69881347836309	-5.650430660927362	7.997216915895648	7.99721691589514	0.02628675965236687	0.06840757727920249	0.6717265633239261	-0.9991187126416303	-4.059825838224552e-08	4.659871105856205e-08	9.967895354508336e-08	1.570069990913951e-08	5.432583971479586e-09	-4.559250912920279e-08	-1.644328062557551e-08
0.01	-0.1602591450626087	0.05843421726898837	0.8979445408136928	0.3780575914468339	-0.2592468937384374	-0.271918886044111	-0.01293267534102959	0.03262680648971709	0.0326268064897145	-0.1745328330156422	0.1736530183173536	-0.04228386953690799	-0.009376323373298542	-0.04010123142198661	-0.01988362905542299	-0.01005544755688274	0.1124980333602601	-0.01108889778857739	0.02670141630677751	-0.05588938925445752	0.07769258372998071	0.07769258372998124	6.584092464601315e-05	0.0001862345596688454	0.005808215885878707	-0.01000080757575843	0.1408574353481477	-0.0871679433442418	-0.04983837285322016	-0.2953078391282198	0.2936369906017172	-0.03022945983078712	-0.08617964465600839	52.36769690307828	-2.047433937341582	6.785302781027593	-2.871557128235032	-594.0114113494919	-81.55039017087718	-39.05767178471414	-3.863886018087964	-1.993211918984997	-0.9856999981854285	11.00418814334162	-1.085068883529129	2.6340469730214	-5.481635463391704	7.599448374720721	7.599448374721047	0.006370585259664271	-0.005353166432441086	0.5095613486901117	-0.9928176534666554	-4.472649199234219e-08	7.819826570059054e-08	8.829714922285388e-08	2.146371759647596e-08	-7.229195763906129e-08	2.613126050464475e-09	-1.441615343703733e-08
0.02	-0.1608522959856188	0.05813526929518967	0.8977947316258682	0.3797318878056866	-0.2594109269774627	-0.2715219917145969	-0.0137582565807928	0.03378289023414983	0.03378289023414968	-0.1745302384113097	0.173655963982789	-0.04220104770253232	-0.009525045412854908	-0.07819420208886939	-0.03993373234362636	-0.01986549767898552	0.2218343227782361	-0.02162557937557076	0.0525324832610073	-0.1087164747363814	0.1531519383868187	0.1531519383868192	0.0005171949048465423	0.0004090866496110779	0.01058412167056719	-0.01969185008846707	0.1268513535486674	-0.0955436801856441	-0.04637989782498953	-0.2732770038645878	0.258587265982485	-0.009007774427014892	-0.07593501557200814	41.93505186611365	-9.186757466787119	7.637292100227815	4.06271010004406	-593.6467779329606	-94.1346484649373	-39.09073481611145	-3.800532201644504	-2.020283436851326	-0.983884911997803	10.95059773582377	-1.018477519118855	2.524743607853544	-5.037969906420607	7.550571101267106	7.5505711012665	0.1033893707632088	0.07573108333388635	0.4652645430858462	-0.9371657000317098	-4.885472560243886e-08	1.09797820342619e-07	7.691534490062438e-08	2.722673528381241e-08	-1.500164992496022e-07	5.081876123013174e-08	-1.238902624849915e-08
0.03	-0.1618183479088983	0.05763648956095951	0.8975477567555828	0.3824845836859924	-0.2596781186419613	-0.2708706466398417	-0.01509881529274327	0.03568347403395202	0.03568347403395294	-0.1745222413122755	0.1736613137362285	-0.04207347086293418	-0.009769184822943578	-0.1148481303136641	-0.05969746478802532	-0.0295122680410882	0.3282047152052113	-0.03178392066426956	0.07764189839835689	-0.1591213526309566	0.2266729002957712	0.2266729002957646	0.001022178479720238	0.0006573493937232777	0.01496614039683162	-0.02909965266780356	0.1233110451991707	-0.09027945950053709	-0.04610824379045797	-0.2717404870776025	0.2594276291615648	-0.01308504467253245	-0.07278382014038326	42.09466541528195	-7.55496399773081	7.503947632783279	3.054973776076941	-593.5027233135669	-90.24176661587032	-39.14469420610173	-3.572620314466664	-1.935700222496175	-0.9525221651124067	10.40523123724894	-1.010200072588217	2.489835903375269	-5.000659477525949	7.209073013659432	7.209073013658807	0.01506785905021375	-0.001161539779340025	0.4299021094159287	-0.9371561256671332	-6.831877886407708e-08	1.127111601690329e-07	1.183592378274346e-07	3.971542869141093e-08	-2.31150559947968e-07	4.384242991849672e-08	-2.033797996330121e-08
0.04	-0.1631458985507413	0.05694381608743288	0.8972048243683172	0.3862859777387912	-0.2600460312471152	-0.269971048326372	-0.01693520533294914	0.03831051030843387	0.03831051030843372	-0.1745109913758376	0.1736690390351606	-0.0419010275216696	-0.01010631597658212	-0.1504939458012376	-0.07871248020291612	-0.03905700107504079	0.4315739572767699	-0.04176976750668079	0.1021831310036904	-0.2078827403875266	0.2984424333227277	0.2984424333227192	0.00116776238262044	0.0008841957486665955	0.01955742200386273	-0.03829019879844268	0.1197707368496791	-0.0850152388154372	-0.04583658975593777	-0.2702039702906249	0.2602679923406374	-0.0171623149180584	-0.06963262470874444	42.31674845062573	-5.932977520388248	7.370876854690753	1.96133168607883	-592.4007519920311	-86.26107353563394	-39.21841052630519	-3.598909654200224	-1.870540030949713	-0.9634774463677895	10.35036766474046	-0.9839786298613766	2.411107101450333	-4.709271878819531	7.200285324867921	7.200285324868335	0.03150943636844811	0.07144780550011698	0.5071171192391528	-0.8937144102922784	-8.809903459275741e-08	1.150330316487331e-07	1.608923203882456e-07	5.234279582520044e-08	-3.123549200089695e-07	3.572832610188637e-08	-2.849262606786287e-08
0.05	-0.1648246974936687	0.05606456501631341	0.8967668725906899	0.3911060667205385	-0.2605122217776416	-0.2688292492891241	-0.01924922717218186	0.04164611993922618	0.04164611993922419	-0.1744989856715983	0.1736790895745423	-0.04168187552294845	-0.01053362681790418	-0.1850450654910573	-0.09702768069971451	-0.04851880953106393	0.5318855653054634	-0.05137469871139663	0.1260496204752554	-0.2545071478382328	0.3683237217648929	0.3683237217648703	0.001265573485301093	0.001125576540354265	0.02427446649970441	-0.04708042380778739	0.1122451754578987	-0.08242792565438302	-0.04463053991642206	-0.2630698660158118	0.2518717305354235	-0.01500599584503988	-0.06360869018369564	39.78188084702875	-6.451396849724464	7.482958313062628	2.76456936958416	-591.6631851845902	-86.1186468701047	-39.31047959073162	-3.350103232556489	-1.795491490310601	-0.9354139345033827	9.787803346130513	-0.934720622169525	2.355337407001475	-4.576853235044664	6.828690707714938	6.8286907077126	0.003776881994397747	0.0004099364837006226	0.4542164215591774	-0.8579803399901395	-9.820861485341382e-08	1.275043875403847e-07	1.660461525939907e-07	6.395306586438986e-08	-3.746540828834208e-07	4.349644474135325e-08	-2.895321688716217e-08
